<mxfile host="Electron" agent="Mozilla/5.0 (Windows NT 10.0; Win64; x64) AppleWebKit/537.36 (KHTML, like Gecko) draw.io/27.0.9 Chrome/134.0.6998.205 Electron/35.4.0 Safari/537.36" version="27.0.9">
  <diagram name="Page-1" id="7_4kqS-aKDjtE7uIvdoJ">
    <mxGraphModel dx="1410" dy="833" grid="1" gridSize="10" guides="1" tooltips="1" connect="1" arrows="1" fold="1" page="1" pageScale="1" pageWidth="850" pageHeight="1100" math="0" shadow="0">
      <root>
        <mxCell id="0" />
        <mxCell id="1" parent="0" />
        <mxCell id="C7SkFyDpOY7wPRDO_I80-3" value="" style="edgeStyle=orthogonalEdgeStyle;rounded=0;orthogonalLoop=1;jettySize=auto;html=1;strokeWidth=3;" edge="1" parent="1" source="C7SkFyDpOY7wPRDO_I80-1" target="C7SkFyDpOY7wPRDO_I80-2">
          <mxGeometry relative="1" as="geometry" />
        </mxCell>
        <mxCell id="C7SkFyDpOY7wPRDO_I80-1" value="" style="shape=waypoint;sketch=0;fillStyle=solid;size=6;pointerEvents=1;points=[];fillColor=none;resizable=0;rotatable=0;perimeter=centerPerimeter;snapToPoint=1;strokeWidth=8;" vertex="1" parent="1">
          <mxGeometry x="420" y="420" width="20" height="20" as="geometry" />
        </mxCell>
        <mxCell id="C7SkFyDpOY7wPRDO_I80-5" value="" style="edgeStyle=orthogonalEdgeStyle;rounded=0;orthogonalLoop=1;jettySize=auto;html=1;exitX=0;exitY=0.5;exitDx=0;exitDy=0;fontFamily=Times New Roman;fontSize=13;strokeWidth=3;" edge="1" parent="1" source="C7SkFyDpOY7wPRDO_I80-2">
          <mxGeometry relative="1" as="geometry">
            <mxPoint x="300" y="530" as="sourcePoint" />
            <mxPoint x="140" y="650" as="targetPoint" />
          </mxGeometry>
        </mxCell>
        <mxCell id="C7SkFyDpOY7wPRDO_I80-10" value="Button pressed before&amp;nbsp;&lt;div&gt;parallel lane is in green state&lt;/div&gt;" style="edgeLabel;html=1;align=center;verticalAlign=middle;resizable=0;points=[];fontFamily=Times New Roman;fontSize=13;" vertex="1" connectable="0" parent="C7SkFyDpOY7wPRDO_I80-5">
          <mxGeometry x="-0.4643" y="3" relative="1" as="geometry">
            <mxPoint as="offset" />
          </mxGeometry>
        </mxCell>
        <mxCell id="C7SkFyDpOY7wPRDO_I80-13" value="t_wait=t_perpendicular + t_yellow" style="edgeLabel;html=1;align=center;verticalAlign=middle;resizable=0;points=[];fontSize=13;fontFamily=Times New Roman;" vertex="1" connectable="0" parent="C7SkFyDpOY7wPRDO_I80-5">
          <mxGeometry x="0.5937" y="2" relative="1" as="geometry">
            <mxPoint x="8" as="offset" />
          </mxGeometry>
        </mxCell>
        <mxCell id="C7SkFyDpOY7wPRDO_I80-7" value="" style="edgeStyle=orthogonalEdgeStyle;rounded=0;orthogonalLoop=1;jettySize=auto;html=1;fontFamily=Times New Roman;fontSize=13;strokeWidth=3;" edge="1" parent="1" source="C7SkFyDpOY7wPRDO_I80-2" target="C7SkFyDpOY7wPRDO_I80-6">
          <mxGeometry relative="1" as="geometry" />
        </mxCell>
        <mxCell id="C7SkFyDpOY7wPRDO_I80-11" value="Button pressed before&amp;nbsp;&lt;div&gt;parallel lane is in green state&lt;/div&gt;" style="edgeLabel;html=1;align=center;verticalAlign=middle;resizable=0;points=[];fontFamily=Times New Roman;fontSize=13;" vertex="1" connectable="0" parent="C7SkFyDpOY7wPRDO_I80-7">
          <mxGeometry x="-0.3714" y="2" relative="1" as="geometry">
            <mxPoint as="offset" />
          </mxGeometry>
        </mxCell>
        <mxCell id="C7SkFyDpOY7wPRDO_I80-14" value="t_wait=t_parallel + t_yellow" style="edgeLabel;html=1;align=center;verticalAlign=middle;resizable=0;points=[];fontSize=13;fontFamily=Times New Roman;" vertex="1" connectable="0" parent="C7SkFyDpOY7wPRDO_I80-7">
          <mxGeometry x="0.6143" y="-2" relative="1" as="geometry">
            <mxPoint as="offset" />
          </mxGeometry>
        </mxCell>
        <mxCell id="C7SkFyDpOY7wPRDO_I80-2" value="Press Button" style="rounded=1;whiteSpace=wrap;html=1;fillColor=none;sketch=0;fillStyle=solid;pointerEvents=1;resizable=0;strokeWidth=3;fontSize=13;fontFamily=Times New Roman;" vertex="1" parent="1">
          <mxGeometry x="370" y="500" width="120" height="60" as="geometry" />
        </mxCell>
        <mxCell id="C7SkFyDpOY7wPRDO_I80-17" value="" style="edgeStyle=orthogonalEdgeStyle;rounded=0;orthogonalLoop=1;jettySize=auto;html=1;" edge="1" parent="1" source="C7SkFyDpOY7wPRDO_I80-4" target="C7SkFyDpOY7wPRDO_I80-16">
          <mxGeometry relative="1" as="geometry" />
        </mxCell>
        <mxCell id="C7SkFyDpOY7wPRDO_I80-4" value="Pedestrian light turns green" style="whiteSpace=wrap;html=1;fillColor=none;rounded=1;sketch=0;fillStyle=solid;pointerEvents=1;resizable=0;strokeWidth=3;fontSize=13;fontFamily=Times New Roman;" vertex="1" parent="1">
          <mxGeometry x="80" y="650" width="120" height="60" as="geometry" />
        </mxCell>
        <mxCell id="C7SkFyDpOY7wPRDO_I80-18" value="" style="edgeStyle=orthogonalEdgeStyle;rounded=0;orthogonalLoop=1;jettySize=auto;html=1;" edge="1" parent="1" source="C7SkFyDpOY7wPRDO_I80-6" target="C7SkFyDpOY7wPRDO_I80-15">
          <mxGeometry relative="1" as="geometry" />
        </mxCell>
        <mxCell id="C7SkFyDpOY7wPRDO_I80-6" value="Pedestrian light turns green" style="whiteSpace=wrap;html=1;fillColor=none;rounded=1;sketch=0;fillStyle=solid;pointerEvents=1;resizable=0;strokeWidth=3;fontSize=13;fontFamily=Times New Roman;" vertex="1" parent="1">
          <mxGeometry x="720" y="660" width="120" height="60" as="geometry" />
        </mxCell>
        <mxCell id="C7SkFyDpOY7wPRDO_I80-15" value="" style="ellipse;html=1;shape=endState;fillColor=#000000;strokeColor=#000000;" vertex="1" parent="1">
          <mxGeometry x="765" y="770" width="30" height="30" as="geometry" />
        </mxCell>
        <mxCell id="C7SkFyDpOY7wPRDO_I80-16" value="" style="ellipse;html=1;shape=endState;fillColor=#000000;strokeColor=#000000;" vertex="1" parent="1">
          <mxGeometry x="125" y="770" width="30" height="30" as="geometry" />
        </mxCell>
        <mxCell id="C7SkFyDpOY7wPRDO_I80-19" value="&lt;font style=&quot;font-size: 13px;&quot; face=&quot;Times New Roman&quot;&gt;Pedestrian Light Activity Diagram&lt;/font&gt;" style="text;html=1;align=center;verticalAlign=middle;resizable=0;points=[];autosize=1;strokeColor=none;fillColor=none;" vertex="1" parent="1">
          <mxGeometry x="330" y="360" width="200" height="30" as="geometry" />
        </mxCell>
      </root>
    </mxGraphModel>
  </diagram>
</mxfile>
